<svg width="128" height="128" viewBox="0 0 128 128" fill="none" xmlns="http://www.w3.org/2000/svg">
<path d="M5.06196 29.3121H4.51172L4.64741 93.0371H57.1978L5.06196 29.3121ZM7.22216 36.2097L51.5092 90.3414H7.33748L7.22216 36.2097Z" fill="#222222" stroke="#222222" stroke-width="0.960446"/>
<path d="M33.676 29.3121H4.51172V66.8331H33.676C44.0371 66.8331 52.4365 58.4336 52.4365 48.0726V48.0723C52.4365 37.7113 44.0371 29.3121 33.676 29.3121ZM33.676 32.0079C42.534 32.0079 49.7407 39.2146 49.7407 48.0726C49.7407 56.9306 42.534 64.1373 33.676 64.1373H7.20749V32.0079H33.676Z" fill="#222222" stroke="#222222" stroke-width="0.960446"/>
<path d="M126.509 29.3138H55.877L92.4984 77.3698L126.509 29.3138ZM121.299 32.0096L92.4184 72.817L61.3206 32.0096H121.299Z" fill="#222222" stroke="#222222" stroke-width="0.960446"/>
<path d="M126.512 29.3121H105.565L60.6191 93.0371H81.5659L126.512 29.3121ZM121.312 32.0079L80.1683 90.3414H65.8193L106.962 32.0079H121.312Z" fill="#222222" stroke="#222222" stroke-width="0.960446"/>
</svg>