<svg width="128" height="128" viewBox="0 0 128 128" fill="none" xmlns="http://www.w3.org/2000/svg">
<g clip-path="url(#clip0_3205_220)">
<rect width="128" height="128" rx="8" fill="#1447E6"/>
<path d="M53.7504 64.2H65.9504C67.7504 64.2 69.4837 64.0667 71.1504 63.8C72.8171 63.5333 74.2837 63.0333 75.5504 62.3C76.8171 61.5 77.8171 60.4 78.5504 59C79.3504 57.6 79.7504 55.7667 79.7504 53.5C79.7504 51.2333 79.3504 49.4 78.5504 48C77.8171 46.6 76.8171 45.5333 75.5504 44.8C74.2837 44 72.8171 43.4667 71.1504 43.2C69.4837 42.9333 67.7504 42.8 65.9504 42.8H53.7504V64.2ZM38.0504 30.6H70.2504C74.7171 30.6 78.5171 31.2667 81.6504 32.6C84.7837 33.8667 87.3171 35.5667 89.2504 37.7C91.2504 39.8333 92.6837 42.2667 93.5504 45C94.4837 47.7333 94.9504 50.5667 94.9504 53.5C94.9504 56.3667 94.4837 59.2 93.5504 62C92.6837 64.7333 91.2504 67.1667 89.2504 69.3C87.3171 71.4333 84.7837 73.1667 81.6504 74.5C78.5171 75.7667 74.7171 76.4 70.2504 76.4H53.7504V102H38.0504V30.6Z" fill="white"/>
</g>
<defs>
<clipPath id="clip0_3205_220">
<rect width="128" height="128" fill="white"/>
</clipPath>
</defs>
</svg>
